<svg id="visual" viewBox="0 0 900 600" width="900" height="600" xmlns="http://www.w3.org/2000/svg" xmlns:xlink="http://www.w3.org/1999/xlink" version="1.1"><rect x="0" y="0" width="900" height="600" fill="#00ccf5"></rect><defs><linearGradient id="grad1_0" x1="33.3%" y1="0%" x2="100%" y2="100%"><stop offset="20%" stop-color="#00ccf5" stop-opacity="1"></stop><stop offset="80%" stop-color="#00ccf5" stop-opacity="1"></stop></linearGradient></defs><defs><linearGradient id="grad2_0" x1="0%" y1="0%" x2="66.7%" y2="100%"><stop offset="20%" stop-color="#00ccf5" stop-opacity="1"></stop><stop offset="80%" stop-color="#00ccf5" stop-opacity="1"></stop></linearGradient></defs><g transform="translate(900, 0)"><path d="M0 459.7C-95.7 456.5 -191.5 453.4 -229.9 398.1C-268.2 342.9 -249.2 235.5 -278 160.5C-306.7 85.5 -383.2 42.7 -459.7 0L0 0Z" fill="#0affc2"></path></g><g transform="translate(0, 600)"><path d="M0 -459.7C67 -425.3 134 -390.8 206 -356.8C278 -322.8 355 -289.2 398.1 -229.9C441.2 -170.5 450.5 -85.2 459.7 0L0 0Z" fill="#0affc2"></path></g></svg>